<svg width="84" height="65" viewBox="0 0 84 65" fill="none" xmlns="http://www.w3.org/2000/svg">
<path d="M83.6214 0.0722656H82.6484V48.9631H83.6214V0.0722656Z" fill="#434243"/>
<path d="M67.5826 23.1549C67.5694 23.1509 67.5577 23.1429 67.549 23.132C67.5403 23.1211 67.5351 23.1079 67.5339 23.0939C67.5325 23.0794 67.5354 23.0648 67.5421 23.052C67.5488 23.0391 67.559 23.0286 67.5715 23.0216C69.4992 21.9873 71.0591 20.3614 72.0308 18.3738C72.9642 16.5105 73.459 14.4512 73.4758 12.359C73.4933 10.6718 73.2617 8.99153 72.7887 7.3746C72.3521 5.9089 71.5477 4.58484 70.455 3.53346C69.3712 2.48506 67.8907 1.65357 66.06 1.05028C64.2293 0.446997 61.9089 0.146484 59.1673 0.146484H43.0547V48.8882H59.5839C62.6048 48.8882 65.1779 48.4363 67.2324 47.5597C69.287 46.683 70.9492 45.5532 72.1881 44.1975C73.3859 42.9018 74.3 41.3615 74.8699 39.6786C75.4002 38.1284 75.6794 36.5007 75.6965 34.8591C75.6965 32.0257 75.0006 29.556 73.6309 27.5202C72.2613 25.4844 70.2311 24.0135 67.5826 23.1549ZM57.0529 1.12936C59.7945 1.05932 63.5888 1.31916 65.2112 1.73717C66.4923 2.0575 67.6978 2.63515 68.7573 3.4363C69.748 4.14353 71.1553 5.96016 71.5964 7.07409C72.0751 8.28517 72.392 10.8361 72.392 12.5127C72.392 15.0252 71.3592 17.9807 70.0715 19.5397C68.5689 21.3473 67.505 21.867 65.8118 22.6126C64.4155 23.1707 60.4926 23.1029 57.5981 23.1029H44.1983C44.1717 15.7626 44.1459 8.42225 44.1207 1.08191L57.0529 1.12936ZM74.8543 35.9255C74.646 39.1046 72.8286 42.4781 71.1819 44.001C69.5413 45.5349 67.5481 46.6229 65.3862 47.1642C63.3783 47.6817 61.8734 48.068 58.7373 48.068H44.205C44.1769 40.0378 44.1488 32.0083 44.1207 23.9796H58.2896C61.2174 24.1287 64.6637 23.8576 66.5365 24.1513C68.4093 24.4451 69.8964 25.5319 70.916 26.2459C71.9975 27.0005 73.5268 28.9437 74.0077 30.1367C74.533 31.4066 74.9696 34.136 74.8543 35.9255Z" fill="#434243"/>
<path d="M0.789007 58.795H0V64.8278H0.789007V58.795Z" fill="#434243"/>
<path d="M11.4309 63.2913L7.90916 58.7949H7.45703V64.83H8.17733V60.3336L11.6968 64.83H12.1512V58.7949H11.4309V63.2913Z" fill="#434243"/>
<path d="M18.2695 59.4683H20.3706V64.83H21.1596V59.4683H23.2585V58.7949H18.2695V59.4683Z" fill="#434243"/>
<path d="M29.3867 64.83H32.9661V64.1544H30.1757V61.9831H32.4718V61.3097H30.1757V59.4683H32.9661V58.7949H29.3867V64.83Z" fill="#434243"/>
<path d="M43.332 60.5664C43.332 59.5903 42.7491 58.795 41.3971 58.795H39.449V64.8278H40.238V62.3423H41.2929L42.9906 64.8278H43.9082L42.1085 62.2452C42.9552 62.0125 43.332 61.3504 43.332 60.5664ZM40.2291 61.6622V59.4705H41.3927C42.2792 59.4705 42.5474 60.0128 42.5474 60.5664C42.5474 61.12 42.2814 61.6622 41.3927 61.6622H40.2291Z" fill="#434243"/>
<path d="M50.7116 58.795H49.9226V64.8278H50.7116V58.795Z" fill="#434243"/>
<path d="M60.2409 58.6242C58.4257 58.6242 57.0938 59.9618 57.0938 61.8101C57.0938 63.6583 58.4235 64.9982 60.2409 64.9982C60.6584 65.0095 61.074 64.9355 61.463 64.7804C61.852 64.6254 62.2066 64.3924 62.5058 64.0954C62.8051 63.7983 63.0429 63.4431 63.2053 63.0508C63.3677 62.6585 63.4514 62.237 63.4514 61.8112C63.4514 61.3854 63.3677 60.9639 63.2053 60.5716C63.0429 60.1793 62.8051 59.8241 62.5058 59.527C62.2066 59.23 61.852 58.997 61.463 58.842C61.074 58.6869 60.6584 58.6128 60.2409 58.6242ZM60.2409 64.3249C58.8801 64.3249 57.9138 63.2697 57.9138 61.8101C57.9138 60.3504 58.8801 59.2975 60.2409 59.2975C61.6017 59.2975 62.5592 60.3437 62.5592 61.8101C62.5592 63.2765 61.5929 64.3249 60.2409 64.3249Z" fill="#434243"/>
<path d="M73.6433 60.5664C73.6433 59.5903 73.0626 58.795 71.7106 58.795H69.7581V64.8278H70.5471V62.3423H71.602L73.2997 64.8278H74.2151L72.4221 62.2452C73.2687 62.0125 73.6433 61.3504 73.6433 60.5664ZM70.5404 61.6622V59.4705H71.704C72.5905 59.4705 72.8587 60.0128 72.8587 60.5664C72.8587 61.12 72.5927 61.6622 71.704 61.6622H70.5404Z" fill="#434243"/>
<path d="M82.0246 61.2796C81.0982 61.0265 80.8323 60.665 80.8323 60.2334C80.8323 59.6686 81.2556 59.3183 81.9958 59.3183C82.5133 59.3491 83.0105 59.5346 83.4253 59.8516L83.6049 59.2167C83.1423 58.8578 82.5771 58.6634 81.9958 58.6631C80.7835 58.6631 80.092 59.3793 80.092 60.2334C80.092 61.0875 80.6261 61.6908 81.7387 61.9936C82.8513 62.2963 83.1394 62.6353 83.1394 63.2498C83.1394 63.9028 82.5987 64.305 81.8983 64.305C81.5589 64.3044 81.2236 64.2305 80.9142 64.0884C80.6048 63.9463 80.3284 63.739 80.1031 63.4803L79.9258 64.2237C80.4625 64.7241 81.1715 64.9881 81.8983 64.958C82.9134 64.958 83.8797 64.3547 83.8797 63.1798C83.8797 62.1834 83.299 61.6208 82.0246 61.2796Z" fill="#434243"/>
<path d="M31.8794 0.390892L0 48.8886H1.27438C5.4115 42.6057 9.53605 36.3319 13.6481 30.067C19.8848 20.5772 26.3342 10.7642 32.7083 1.10489H32.9521V48.8886H34.1135V0H32.1365L31.8794 0.390892Z" fill="#434243"/>
</svg>
