<svg xmlns="http://www.w3.org/2000/svg" fill="#20303a" viewBox="0 0 260 54"><path d="M248,31l10.58-18.27a1.47,1.47,0,0,0,.22-.74c0-.89-.62-2.09-1.5-2.15h-5.81c-.72.05-1.12.87-1.49,1.33l-6.41,11.36-5.77-11.09a2.68,2.68,0,0,0-2.52-1.5H222.69c-1.35,0-3.93,0-3.93,0l1.84,3.22,10.29,19.06L220.1,51.65a1.51,1.51,0,0,0-.2.75A1.65,1.65,0,0,0,221.51,54l5.62.09a2.33,2.33,0,0,0,1.58-1l6.72-12.4,6.42,11.88c.49.75.63,1.13,2.3,1.46h15.73S253.23,41.16,248,31"></path><path d="M59,.17V54H69.22c3.37-.05,5.83-.71,5.9-4.7l0-21.06H86.62V21H75.1l0-10.89H87.6V.17Z"></path><path d="M148,.24H132.28V54.18h9.2v-.06c5.56,0,6.56-2,6.56-5.68l0-9.25Z"></path><path d="M104.77,28.55c2.81,0,5.42.05,8.06,0a46.37,46.37,0,0,0-.38-8.41,9.68,9.68,0,0,0-.72-2.52,2.94,2.94,0,0,0-5.09-.37,8.49,8.49,0,0,0-.93,2.12,48.25,48.25,0,0,0-.94,9.19m.3,6.56a16.43,16.43,0,0,0,1.42,7,6.48,6.48,0,0,0,4.85,3.54,17.07,17.07,0,0,0,8-.52c1.39-.36,2.76-.82,4.26-1.27l2.48,6.55a17,17,0,0,1-5.35,2.23,37.76,37.76,0,0,1-19.09.27c-5.76-1.45-9.2-5.12-10.6-10.83a38.07,38.07,0,0,1-1-8.64A42.28,42.28,0,0,1,91,22c.07-.3.18-.6.26-.9a13.48,13.48,0,0,1,10.44-10.22,29.39,29.39,0,0,1,15.24.16,12,12,0,0,1,8.55,8.12,37.88,37.88,0,0,1,1.69,8.68c.22,2.32.26,4.66.38,7.16a39.08,39.08,0,0,1-4.56.1c-1.46,0-2.91,0-4.37,0H105.07Z"></path><path d="M204.6,28.48a43.22,43.22,0,0,0-.48-8.78,8.89,8.89,0,0,0-.47-1.79,2.77,2.77,0,0,0-2.4-1.93,2.85,2.85,0,0,0-3,1.5,7.47,7.47,0,0,0-.77,1.85,41.81,41.81,0,0,0-.88,8.79c0,.09.08.18.17.36Zm13.27,22A21.63,21.63,0,0,1,211.08,53a38,38,0,0,1-16.68.14,20.36,20.36,0,0,1-2.54-.71c-5-1.72-7.83-5.38-9.06-10.42a38.07,38.07,0,0,1-1-8.64,42.39,42.39,0,0,1,1-11.45q.31-1.2.75-2.37a13,13,0,0,1,9.11-8.45,29.25,29.25,0,0,1,16-.09,12,12,0,0,1,8.76,8.49,37.87,37.87,0,0,1,1.6,9c.11,1.61.2,3.22.28,4.83,0,.51,0,1,0,1.69-1.95.13-3.8.05-5.65.06s-3.75,0-5.62,0H196.85c0,2.9.41,5.54,1.92,7.87a6.51,6.51,0,0,0,4.4,2.69,17.36,17.36,0,0,0,7.85-.49c1.4-.36,2.77-.84,4.33-1.32.82,2.13,1.64,4.29,2.52,6.58"></path><path d="M169.69,0V11.23h9c0,2.34,0,4.55,0,6.93h-9c0,.52-.06.87-.06,1.22q0,10.53,0,21.06a16.87,16.87,0,0,0,.32,3.09c.37,1.93,1.4,2.84,3.35,2.77a44.06,44.06,0,0,0,4.42-.58c.56,1.67,1.19,3.52,1.87,5.53-.56.32-1.11.69-1.71,1a22.52,22.52,0,0,1-11.11,1.72,24.67,24.67,0,0,1-4.75-.79,8.79,8.79,0,0,1-6.5-6.5,25.76,25.76,0,0,1-.86-6.93q0-9.83,0-19.66V18.26h-4.17a9.21,9.21,0,0,1-.21-3.15c0-1,0-2,0-3.1,1.33-.34,2.61-.71,3.91-1a3.73,3.73,0,0,0,2.27-1.47c2.23-2.87,4.54-5.68,6.78-8.54a2.3,2.3,0,0,1,2.11-1c1.34.08,2.69,0,4.27,0"></path><polygon points="45.29 25.13 34.84 0.26 0 0.26 10.45 25.13 45.29 25.13"></polygon><polygon points="10.45 29.14 0 54.01 34.84 54.01 45.29 29.14 10.45 29.14"></polygon></svg>