<svg xmlns="http://www.w3.org/2000/svg" fill="#20303a" viewBox="0 0 197 53"><rect x="93.61" width="63.4" height="2.75"></rect><polygon points="76 48.05 2.75 48.05 2.75 2.75 68.3 2.75 68.3 0 0 0 0 50.8 76 50.8 76 48.05"></polygon><polygon points="172.69 0 172.69 2.75 194.63 2.75 194.63 48.05 184.04 48.05 184.04 50.8 197.38 50.8 197.38 0 172.69 0"></polygon><path d="M81.14,49.59v0a3.42,3.42,0,0,1,3.5-3.5,3.52,3.52,0,0,1,2.65,1l-.77.88a2.69,2.69,0,0,0-1.89-.84,2.27,2.27,0,0,0-2.24,2.39v0A2.29,2.29,0,0,0,84.63,52a2.65,2.65,0,0,0,1.94-.88l.77.78a3.52,3.52,0,0,1-2.75,1.2A3.41,3.41,0,0,1,81.14,49.59Z"></path><path d="M99.6,46.13h1.1l3,6.83h-1.26l-.69-1.64h-3.2L97.84,53H96.62Zm1.71,4.14-1.18-2.71L99,50.27Z"></path><path d="M113.46,46.18h3a2.72,2.72,0,0,1,2,.68,2,2,0,0,1,.56,1.46v0a2,2,0,0,1-1.62,2L119.21,53h-1.4l-1.67-2.36h-1.49V53h-1.19Zm2.94,3.36c.85,0,1.39-.44,1.39-1.13v0c0-.73-.52-1.12-1.4-1.12h-1.74v2.27Z"></path><path d="M129.08,46.18h2.67a2.27,2.27,0,0,1,2.57,2.27v0c0,1.52-1.22,2.31-2.71,2.31h-1.34V53h-1.19Zm2.57,3.53c.9,0,1.46-.51,1.46-1.21v0c0-.8-.57-1.21-1.46-1.21h-1.38v2.44Z"></path><path d="M144.16,46.18h5v1.07h-3.83V49h3.4v1.06h-3.4v1.82h3.88V53h-5.07Z"></path><path d="M160.92,47.29h-2.14V46.18h5.49v1.11h-2.14V53h-1.21Z"></path><path d="M173.55,52l.71-.85a3.13,3.13,0,0,0,2.14.88c.74,0,1.2-.34,1.2-.85v0c0-.48-.27-.75-1.53-1-1.44-.34-2.25-.77-2.25-2v0a2.07,2.07,0,0,1,2.31-2,3.77,3.77,0,0,1,2.46.85l-.64.9a3.05,3.05,0,0,0-1.84-.7c-.69,0-1.1.36-1.1.8v0c0,.53.31.76,1.61,1.07s2.17.86,2.17,2v0c0,1.27-1,2-2.42,2A4.15,4.15,0,0,1,173.55,52Z"></path><path d="M14.45,38.34V16.24h5l0,4.78.32-.79a6.72,6.72,0,0,1,2.84-3.45,7.22,7.22,0,0,1,3.55-1,7,7,0,0,1,2,.26,8,8,0,0,1,1.44.61l-1.7,4.53a8.43,8.43,0,0,0-1.18-.45,5.64,5.64,0,0,0-1.66-.23,5.34,5.34,0,0,0-4,1.61c-1,1.06-1.55,2.91-1.55,5.47V38.34Z"></path><path d="M42.3,38.83A14.93,14.93,0,0,1,37.12,38a11.51,11.51,0,0,1-3.92-2.4,10.55,10.55,0,0,1-2.5-3.66,11.88,11.88,0,0,1-.9-4.61,11.23,11.23,0,0,1,.93-4.58,11.55,11.55,0,0,1,2.5-3.66A11.33,11.33,0,0,1,37,16.63a12.28,12.28,0,0,1,4.64-.87,11.92,11.92,0,0,1,5,1,10.15,10.15,0,0,1,3.65,2.76,11.49,11.49,0,0,1,2.19,4.21,15.87,15.87,0,0,1,.56,5.2H34.92l0,.22a6.63,6.63,0,0,0,2.31,4,7.64,7.64,0,0,0,5,1.49,9,9,0,0,0,3.9-.77A10,10,0,0,0,48.6,32.3l2.92,3.07a13.21,13.21,0,0,1-3.65,2.43A13.45,13.45,0,0,1,42.3,38.83Zm-.64-18.94a6.91,6.91,0,0,0-4.45,1.41,6.54,6.54,0,0,0-2.25,4l0,.22H48l0-.21a7.16,7.16,0,0,0-1.87-3.89A5.86,5.86,0,0,0,41.66,19.89Z"></path><path d="M96.18,38.83a8.76,8.76,0,0,1-4.73-1.23,8.4,8.4,0,0,1-3-3.22l-.12-.25v4.21h-5.1V.09h5l0,20.54.34-.58a9.2,9.2,0,0,1,3-3.09,8.48,8.48,0,0,1,4.69-1.2,9.69,9.69,0,0,1,4,.84A10,10,0,0,1,103.6,19a11.3,11.3,0,0,1,2.18,3.63,13.35,13.35,0,0,1,.79,4.65,12.85,12.85,0,0,1-.82,4.64,11.72,11.72,0,0,1-2.22,3.66A10,10,0,0,1,100.24,38,9.77,9.77,0,0,1,96.18,38.83ZM94.8,20.21a6.45,6.45,0,0,0-4.92,2,7.19,7.19,0,0,0-1.82,5.07,7.37,7.37,0,0,0,1.83,5.23,6.41,6.41,0,0,0,4.91,2,6.17,6.17,0,0,0,4.8-2,7.56,7.56,0,0,0,1.77-5.23,7.3,7.3,0,0,0-1.77-5.07A6.17,6.17,0,0,0,94.8,20.21Z"></path><path d="M120.87,38.83a12.62,12.62,0,0,1-4.69-.87,11.94,11.94,0,0,1-3.8-2.43,11.21,11.21,0,0,1-3.47-8.24,11.39,11.39,0,0,1,.92-4.58,11.22,11.22,0,0,1,2.55-3.66,12,12,0,0,1,3.8-2.42,12.42,12.42,0,0,1,4.69-.87,12.66,12.66,0,0,1,4.72.87,11.21,11.21,0,0,1,3.76,2.42,11.75,11.75,0,0,1,2.51,3.66,11.86,11.86,0,0,1,0,9.16,12.06,12.06,0,0,1-2.5,3.67A11.41,11.41,0,0,1,125.59,38,12.86,12.86,0,0,1,120.87,38.83Zm0-18.73a6.36,6.36,0,0,0-5,2,7.46,7.46,0,0,0-1.81,5.17,7.53,7.53,0,0,0,1.81,5.2,6.3,6.3,0,0,0,5,2,6.21,6.21,0,0,0,4.92-2,7.57,7.57,0,0,0,1.79-5.2,7.49,7.49,0,0,0-1.79-5.17A6.26,6.26,0,0,0,120.87,20.1Z"></path><path d="M147,38.83a12.62,12.62,0,0,1-4.69-.87,11.89,11.89,0,0,1-3.79-2.43A11.1,11.1,0,0,1,136,31.87a11.4,11.4,0,0,1,2.56-12.82,12,12,0,0,1,3.79-2.42,12.42,12.42,0,0,1,4.69-.87,12.66,12.66,0,0,1,4.72.87,11.26,11.26,0,0,1,3.77,2.42,11.55,11.55,0,0,1,2.5,3.66,11.86,11.86,0,0,1,0,9.16,11.71,11.71,0,0,1-2.5,3.67A11.31,11.31,0,0,1,151.74,38,12.86,12.86,0,0,1,147,38.83Zm0-18.73a6.33,6.33,0,0,0-4.94,2,7.46,7.46,0,0,0-1.81,5.17,7.49,7.49,0,0,0,1.81,5.2,7,7,0,0,0,9.87,0,7.61,7.61,0,0,0,1.78-5.2A7.53,7.53,0,0,0,152,22.12,6.28,6.28,0,0,0,147,20.1Z"></path><polygon points="167.39 26.3 176.41 16.18 182.03 16.23 173.91 25.41 183.2 38.34 177.19 38.34 170.42 28.67 167.43 31.77 167.38 38.34 162.34 38.34 162.34 0.09 167.38 0.09 167.38 22.21 167.39 26.3"></polygon><path d="M61.7,38a10,10,0,0,1-3.29-2.42,11.72,11.72,0,0,1-2.22-3.66,12.85,12.85,0,0,1-.82-4.64,13.35,13.35,0,0,1,.79-4.65A11.15,11.15,0,0,1,58.35,19,10,10,0,0,1,61.6,16.6a9.69,9.69,0,0,1,4-.84A8.48,8.48,0,0,1,70.31,17a9.2,9.2,0,0,1,3,3.09l.34.58,0-20.54h5V38.34H73.6V34.13l-.12.25a8.4,8.4,0,0,1-3,3.22,8.76,8.76,0,0,1-4.73,1.23A9.77,9.77,0,0,1,61.7,38Zm.64-15.79a7.3,7.3,0,0,0-1.77,5.07,7.56,7.56,0,0,0,1.77,5.23,6.17,6.17,0,0,0,4.8,2,6.45,6.45,0,0,0,4.92-2,7.41,7.41,0,0,0,1.82-5.23,7.19,7.19,0,0,0-1.82-5.07,6.45,6.45,0,0,0-4.92-2A6.17,6.17,0,0,0,62.34,22.17Z"></path></svg>